<svg width="1024" height="1024" viewBox="0 0 1024 1024" fill="none" xmlns="http://www.w3.org/2000/svg" role="img" aria-labelledby="title desc">
  <title id="title">EmoMirror app icon</title>
  <desc id="desc">A soft mirror character reflecting voice, text, and emotion through warm waveform colors.</desc>
  <rect width="1024" height="1024" rx="224" fill="#F7F4EC"/>
  <path d="M496 146C421 143 356 203 333 294C309 390 224 432 230 530C237 650 333 683 380 754C427 825 529 860 616 816C696 775 732 711 737 631C742 552 812 503 789 405C767 313 686 300 645 236C613 186 563 149 496 146Z" fill="#86BF9F"/>
  <path d="M543 221C632 230 691 303 699 393C708 489 666 581 590 627C532 663 477 647 455 594C433 540 461 481 454 421C446 350 470 249 543 221Z" fill="#8FD2DD" fill-opacity=".92"/>
  <path d="M605 585C671 616 695 694 651 754C609 812 521 816 473 770C526 737 570 675 605 585Z" fill="#FFD15C"/>
  <path d="M347 558C397 530 455 558 467 609C480 661 437 697 392 711C337 728 287 695 276 643C267 596 306 581 347 558Z" fill="#F77761"/>
  <path d="M398 408C411 388 433 388 447 408" stroke="#073A52" stroke-width="24" stroke-linecap="round"/>
  <path d="M566 400C579 382 601 383 613 401" stroke="#073A52" stroke-width="21" stroke-linecap="round"/>
  <path d="M461 486C494 524 560 524 597 484" stroke="#073A52" stroke-width="22" stroke-linecap="round"/>
  <path d="M424 568C455 551 488 556 519 580" stroke="#073A52" stroke-width="20" stroke-linecap="round"/>
  <path d="M402 620C449 593 494 603 538 635" stroke="#FFD15C" stroke-width="24" stroke-linecap="round"/>
  <path d="M432 672C479 645 521 654 558 680" stroke="#F77761" stroke-width="22" stroke-linecap="round"/>
  <path d="M514 260C492 328 489 389 505 455" stroke="#073A52" stroke-opacity=".45" stroke-width="14" stroke-linecap="round"/>
  <path d="M699 334C729 319 755 318 781 332" stroke="#073A52" stroke-width="14" stroke-linecap="round"/>
  <path d="M724 379C747 378 765 388 779 406" stroke="#073A52" stroke-width="14" stroke-linecap="round"/>
  <path d="M320 365C297 349 274 344 250 351" stroke="#073A52" stroke-width="14" stroke-linecap="round"/>
  <path d="M303 421C279 424 260 437 247 459" stroke="#073A52" stroke-width="14" stroke-linecap="round"/>
  <circle cx="410" cy="296" r="18" fill="#FFD15C"/>
  <circle cx="642" cy="302" r="14" fill="#F77761"/>
  <path d="M367 256L388 222" stroke="#073A52" stroke-width="13" stroke-linecap="round"/>
  <path d="M389 261L418 238" stroke="#073A52" stroke-width="13" stroke-linecap="round"/>
</svg>
